<svg width="19" height="30" fill="none" xmlns="http://www.w3.org/2000/svg"><path fill="#F5F5F5" d="M0 0h19v30H0z"/><g clip-path="url(#a)"><path fill="#fff" d="M-24-601h360v801H-24z"/><path d="M0 3.75A3.75 3.75 0 0 1 3.75 0H15a3.75 3.75 0 0 1 3.75 3.75v22.5A3.75 3.75 0 0 1 15 30H3.75A3.75 3.75 0 0 1 0 26.25V3.75zm11.25 20.625a1.875 1.875 0 1 0-3.75 0 1.875 1.875 0 0 0 3.75 0z" fill="#232524"/></g><defs><clipPath id="a"><path fill="#fff" transform="translate(-24 -601)" d="M0 0h360v801H0z"/></clipPath></defs></svg>