<svg width="30" height="30" fill="none" xmlns="http://www.w3.org/2000/svg"><path fill="#F5F5F5" d="M0 0h30v30H0z"/><g clip-path="url(#a)"><path fill="#fff" d="M-18-646h360v801H-18z"/><g fill="#232524"><path d="M27.5 9.419V21.25a3.75 3.75 0 0 1-3.53 3.744l-.22.006H6.25a3.75 3.75 0 0 1-3.744-3.53l-.006-.22V9.419l11.806 7.871.145.082a1.25 1.25 0 0 0 1.098 0l.145-.082L27.5 9.419z"/><path d="M23.75 5c1.35 0 2.534.713 3.194 1.784L15 14.746 3.057 6.784a3.749 3.749 0 0 1 2.942-1.775L6.25 5h17.5z"/></g></g><defs><clipPath id="a"><path fill="#fff" transform="translate(-18 -646)" d="M0 0h360v801H0z"/></clipPath></defs></svg>