<svg width="30" height="30" fill="none" xmlns="http://www.w3.org/2000/svg"><g clip-path="url(#a)"><path d="M15 0c-4.07 0-4.582.019-6.182.09-1.6.075-2.689.326-3.643.698a7.344 7.344 0 0 0-2.657 1.73 7.363 7.363 0 0 0-1.73 2.657C.416 6.128.163 7.219.09 8.813.019 10.415 0 10.925 0 15.002c0 4.072.019 4.582.09 6.182.075 1.597.326 2.687.698 3.641a7.368 7.368 0 0 0 1.73 2.657 7.32 7.32 0 0 0 2.655 1.73c.956.372 2.044.625 3.641.698 1.602.071 2.112.09 6.186.09s4.582-.019 6.184-.09c1.595-.075 2.688-.326 3.643-.698 1-.376 1.906-.967 2.655-1.73a7.369 7.369 0 0 0 1.73-2.657c.37-.954.623-2.044.698-3.641.071-1.6.09-2.11.09-6.184s-.019-4.584-.09-6.186c-.075-1.595-.328-2.686-.698-3.639a7.361 7.361 0 0 0-1.73-2.657 7.333 7.333 0 0 0-2.657-1.73C23.869.416 22.778.163 21.182.09 19.58.019 19.072 0 14.996 0h.006H15zm-1.344 2.704h1.346c4.005 0 4.48.013 6.06.086 1.462.066 2.257.311 2.786.516.7.272 1.2.598 1.725 1.123.525.525.85 1.023 1.121 1.725.207.527.45 1.322.516 2.784.073 1.58.088 2.055.088 6.058s-.015 4.48-.088 6.06c-.066 1.463-.311 2.256-.516 2.785a4.631 4.631 0 0 1-1.123 1.723 4.635 4.635 0 0 1-1.725 1.121c-.525.206-1.32.45-2.784.518-1.58.07-2.055.088-6.06.088-4.005 0-4.481-.017-6.062-.088-1.462-.068-2.256-.312-2.784-.518a4.645 4.645 0 0 1-1.725-1.121 4.65 4.65 0 0 1-1.125-1.725c-.205-.527-.45-1.322-.516-2.785-.071-1.58-.086-2.055-.086-6.061 0-4.005.015-4.478.086-6.059.067-1.462.311-2.257.518-2.786.271-.7.598-1.2 1.123-1.725a4.634 4.634 0 0 1 1.725-1.121c.528-.206 1.322-.45 2.784-.518 1.384-.063 1.92-.082 4.716-.084v.004zm9.352 2.49a1.8 1.8 0 1 0 0 3.6 1.8 1.8 0 0 0 0-3.6zm-8.006 2.104a7.705 7.705 0 1 0-.24 15.407 7.705 7.705 0 0 0 .24-15.407zm0 2.701a5 5 0 1 1 0 10.002 5 5 0 0 1 0-10.002z" fill="#232524"/></g><defs><clipPath id="a"><path fill="#fff" d="M0 0h30v30H0z"/></clipPath></defs></svg>