<svg width="30" height="30" fill="none" xmlns="http://www.w3.org/2000/svg"><g clip-path="url(#a)"><path d="M25.502 4.361A14.727 14.727 0 0 0 14.989.001C6.8 0 .127 6.67.12 14.86c0 2.623.686 5.175 1.982 7.435L0 30l7.883-2.066a14.873 14.873 0 0 0 7.106 1.81h.007c8.19 0 14.862-6.672 14.869-14.87a14.807 14.807 0 0 0-4.363-10.513zM14.989 27.227c-2.215 0-4.388-.595-6.293-1.725l-.45-.27-4.676 1.226 1.249-4.562-.293-.47a12.3 12.3 0 0 1-1.888-6.572c0-6.799 5.544-12.345 12.358-12.345a12.3 12.3 0 0 1 8.738 3.62 12.294 12.294 0 0 1 3.615 8.738c-.008 6.823-5.552 12.36-12.36 12.36zm6.778-9.251c-.37-.186-2.194-1.084-2.537-1.211-.341-.122-.59-.186-.834.185-.25.37-.962 1.211-1.176 1.453-.214.25-.435.278-.806.094-.37-.188-1.568-.578-2.985-1.847-1.107-.984-1.847-2.203-2.068-2.572-.214-.372-.021-.57.165-.756.163-.165.369-.435.555-.649.187-.213.249-.371.37-.618.123-.252.065-.466-.027-.651-.094-.186-.835-2.018-1.148-2.756-.3-.73-.605-.629-.834-.638-.214-.013-.463-.013-.713-.013a1.367 1.367 0 0 0-.991.463c-.342.371-1.296 1.27-1.296 3.101 0 1.832 1.331 3.593 1.519 3.842.183.25 2.613 3.998 6.343 5.61.881.385 1.575.611 2.117.784.89.285 1.695.242 2.336.15.712-.109 2.195-.9 2.509-1.768.307-.87.307-1.613.213-1.768-.091-.158-.34-.25-.712-.435z" fill="#34D186"/></g><defs><clipPath id="a"><path fill="#fff" d="M0 0h30v30H0z"/></clipPath></defs></svg>