<svg width="42" height="42" fill="none" xmlns="http://www.w3.org/2000/svg"><g clip-path="url(#a)"><path d="M21 0c-5.699 0-6.415.026-8.655.126-2.239.105-3.764.457-5.1.977a10.282 10.282 0 0 0-3.72 2.422 10.308 10.308 0 0 0-2.422 3.72c-.52 1.333-.875 2.861-.977 5.093C.026 14.582 0 15.296 0 21.002c0 5.701.026 6.415.126 8.654.105 2.237.457 3.762.977 5.098.538 1.38 1.254 2.551 2.422 3.72a10.248 10.248 0 0 0 3.717 2.422c1.34.52 2.862.875 5.098.977 2.242.1 2.956.126 8.66.126 5.704 0 6.416-.026 8.657-.126 2.234-.105 3.765-.457 5.1-.977 1.401-.527 2.67-1.354 3.718-2.422 1.168-1.169 1.884-2.34 2.422-3.72.518-1.336.872-2.861.977-5.098.1-2.239.126-2.953.126-8.657 0-5.704-.026-6.418-.126-8.66-.105-2.234-.46-3.761-.977-5.095a10.305 10.305 0 0 0-2.422-3.72 10.266 10.266 0 0 0-3.72-2.422c-1.339-.52-2.867-.875-5.1-.977C27.413.026 26.7 0 20.995 0h.008H21zm-1.882 3.785h1.885c5.607 0 6.27.019 8.484.121 2.047.092 3.16.436 3.9.722.98.38 1.68.837 2.415 1.572.735.735 1.19 1.433 1.57 2.415.289.738.63 1.85.722 3.898.102 2.213.123 2.877.123 8.482 0 5.604-.02 6.27-.123 8.484-.092 2.047-.436 3.158-.722 3.898a6.483 6.483 0 0 1-1.572 2.412c-.735.735-1.433 1.19-2.415 1.57-.735.289-1.848.63-3.898.724-2.213.1-2.877.124-8.484.124s-6.274-.024-8.487-.123c-2.047-.095-3.158-.436-3.898-.725a6.504 6.504 0 0 1-2.415-1.57 6.51 6.51 0 0 1-1.575-2.415c-.286-.737-.63-1.85-.722-3.898-.1-2.213-.12-2.877-.12-8.486 0-5.607.02-6.269.12-8.482.094-2.047.436-3.16.724-3.9.381-.98.838-1.68 1.573-2.416.735-.735 1.433-1.189 2.415-1.57.74-.288 1.85-.63 3.898-.724 1.937-.09 2.688-.115 6.602-.118v.005zM32.21 7.271a2.52 2.52 0 1 0 0 5.04 2.52 2.52 0 0 0 0-5.04zm-11.208 2.946a10.786 10.786 0 1 0-.337 21.568 10.786 10.786 0 0 0 .337-21.569zm0 3.782a7 7 0 1 1 0 14.002 7 7 0 0 1 0-14.002z" fill="#fff"/></g><defs><clipPath id="a"><path fill="#fff" d="M0 0h42v42H0z"/></clipPath></defs></svg>