<svg width="42" height="42" fill="none" xmlns="http://www.w3.org/2000/svg"><g clip-path="url(#a)"><path d="M42 21a21 21 0 1 1-42 0 21 21 0 0 1 42 0zm-20.247-5.497c-2.042.85-6.126 2.61-12.248 5.276-.992.394-1.515.783-1.562 1.16-.079.639.722.89 1.812 1.235l.459.144c1.07.349 2.515.756 3.263.772.682.015 1.44-.263 2.278-.84 5.72-3.862 8.673-5.812 8.857-5.854.131-.032.315-.068.436.042.123.108.11.315.097.37-.079.339-3.221 3.258-4.846 4.77-.506.472-.866.806-.94.882a21.64 21.64 0 0 1-.493.488c-.998.96-1.743 1.68.04 2.856.858.567 1.545 1.032 2.23 1.499.746.509 1.492 1.016 2.457 1.65.245.158.48.329.71.492.868.62 1.653 1.176 2.616 1.087.562-.053 1.142-.578 1.436-2.153.696-3.72 2.064-11.776 2.378-15.096.02-.276.008-.554-.034-.827a.885.885 0 0 0-.299-.57 1.38 1.38 0 0 0-.814-.244c-.787.013-2.002.436-7.833 2.861z" fill="#fff"/></g><defs><clipPath id="a"><path fill="#fff" d="M0 0h42v42H0z"/></clipPath></defs></svg>