<svg width="42" height="42" fill="none" xmlns="http://www.w3.org/2000/svg"><g clip-path="url(#a)"><path d="M21.134 5.248h.233c2.158.007 13.091.086 16.04.879a5.276 5.276 0 0 1 3.714 3.727c.265.998.451 2.318.577 3.68l.026.274.058.682.021.273c.17 2.4.192 4.646.194 5.137v.197a84.29 84.29 0 0 1-.215 5.408l-.02.275-.025.273c-.13 1.502-.325 2.993-.616 4.09a5.269 5.269 0 0 1-3.715 3.728c-3.045.819-14.618.876-16.222.879h-.373c-.811 0-4.166-.016-7.683-.137l-.447-.015-.228-.01-.449-.02-.449-.018c-2.913-.128-5.688-.336-6.966-.682a5.269 5.269 0 0 1-3.715-3.725c-.291-1.095-.485-2.588-.617-4.09l-.02-.275-.022-.273A82.427 82.427 0 0 1 0 20.16v-.323c.005-.564.026-2.514.168-4.667l.018-.27.008-.137.021-.273.058-.682.026-.273c.126-1.363.313-2.686.578-3.68A5.268 5.268 0 0 1 4.59 6.126c1.279-.341 4.053-.551 6.967-.683l.446-.018.452-.016.225-.008.45-.018c2.498-.08 4.997-.125 7.496-.134h.507v-.002zM16.8 13.674V26.32l10.912-6.32L16.8 13.673z" fill="#fff"/></g><defs><clipPath id="a"><path fill="#fff" d="M0 0h42v42H0z"/></clipPath></defs></svg>