<svg width="42" height="42" fill="none" xmlns="http://www.w3.org/2000/svg"><g clip-path="url(#a)"><path d="M35.703 6.106A20.617 20.617 0 0 0 20.984 0C9.521 0 .178 9.34.168 20.806c0 3.672.96 7.245 2.775 10.408L0 42l11.036-2.893a20.824 20.824 0 0 0 9.948 2.534h.01c11.467 0 20.806-9.34 20.817-20.817a20.733 20.733 0 0 0-6.108-14.718zM20.984 38.118c-3.1 0-6.143-.833-8.81-2.415l-.63-.378-6.546 1.716 1.748-6.386-.41-.659a17.22 17.22 0 0 1-2.643-9.2c0-9.519 7.763-17.284 17.302-17.284a17.22 17.22 0 0 1 12.232 5.07 17.21 17.21 0 0 1 5.061 12.232c-.01 9.552-7.772 17.304-17.304 17.304zm9.49-12.952c-.518-.26-3.072-1.517-3.552-1.696-.478-.17-.827-.26-1.168.26-.35.517-1.347 1.696-1.646 2.035-.3.349-.609.388-1.129.13-.517-.262-2.194-.808-4.179-2.585-1.549-1.378-2.585-3.084-2.895-3.601-.3-.52-.029-.798.23-1.058.23-.231.518-.61.778-.909.262-.299.349-.52.52-.866.17-.352.089-.65-.04-.91-.131-.26-1.168-2.825-1.606-3.86-.42-1.02-.848-.879-1.168-.892-.3-.018-.649-.018-.998-.018a1.912 1.912 0 0 0-1.389.648c-.477.52-1.813 1.777-1.813 4.342 0 2.564 1.863 5.03 2.126 5.378.257.35 3.66 5.597 8.88 7.855 1.234.538 2.205.855 2.964 1.097 1.247.399 2.373.338 3.27.21.998-.152 3.075-1.26 3.513-2.476.43-1.218.43-2.257.3-2.475-.13-.22-.479-.35-.998-.609z" fill="#34D186"/></g><defs><clipPath id="a"><path fill="#fff" d="M0 0h42v42H0z"/></clipPath></defs></svg>