<svg width="30" height="30" fill="none" xmlns="http://www.w3.org/2000/svg"><g clip-path="url(#a)"><path d="M15.096 3.748h.166c1.542.006 9.351.062 11.457.628a3.769 3.769 0 0 1 2.653 2.663c.19.712.322 1.655.412 2.628l.02.195.04.488.015.195c.122 1.714.137 3.319.14 3.67v.14a60.16 60.16 0 0 1-.155 3.863l-.015.196-.017.195c-.093 1.073-.232 2.138-.44 2.922a3.763 3.763 0 0 1-2.653 2.662c-2.175.585-10.442.626-11.588.628h-.266c-.58 0-2.976-.011-5.488-.097l-.319-.012-.163-.007-.32-.013-.321-.013c-2.081-.092-4.063-.24-4.976-.488a3.762 3.762 0 0 1-2.654-2.66c-.208-.782-.346-1.85-.44-2.922l-.015-.197-.015-.194A58.876 58.876 0 0 1 0 14.4v-.23c.004-.404.019-1.797.12-3.334l.013-.194.006-.097.015-.195.041-.488.019-.195c.09-.973.223-1.918.412-2.628A3.763 3.763 0 0 1 3.28 4.376c.913-.244 2.895-.394 4.977-.487l.318-.013.323-.012.161-.005.32-.013c1.785-.058 3.57-.09 5.356-.096h.362v-.002zM12 9.767V18.8l7.794-4.515L12 9.766z" fill="#232524"/></g><defs><clipPath id="a"><path fill="#fff" d="M0 0h30v30H0z"/></clipPath></defs></svg>