<svg width="111" height="70" viewBox="0 0 111 70" fill="none" xmlns="http://www.w3.org/2000/svg">
<g filter="url(#filter0_ii_1201_3221)">
<path d="M12.0449 57.8178C5.43871 57.8178 0.0839844 52.4737 0.0839844 45.8806L0.0839844 12.0398C0.0839844 5.44666 5.43871 0.102539 12.0449 0.102539L98.4919 0.102539C105.098 0.102539 110.453 5.44666 110.453 12.0398V57.8178H12.0449Z" fill="#34D186"/>
<path d="M13.8501 13.145H21.8198L28.3459 31.5731L35.3682 13.145H40.2429L47.1371 31.3655L53.6697 13.145H61.6906L49.8481 45.5356H44.6886L37.7687 27.0787L30.6408 45.5356H25.539L13.8501 13.145Z" fill="white"/>
<path d="M98.8184 31.6913H72.6593C73.037 33.9944 74.0452 35.8248 75.6871 37.1824C77.3259 38.5432 79.4191 39.2204 81.9669 39.2204C85.0107 39.2204 87.6224 38.1599 89.8117 36.0356L96.6707 39.2523C94.9616 41.6736 92.9132 43.4657 90.5255 44.6252C88.1377 45.7879 85.3052 46.3661 82.0245 46.3661C76.9322 46.3661 72.7873 44.7626 69.5866 41.5586C66.386 38.3547 64.7856 34.3394 64.7856 29.516C64.7856 24.5744 66.3828 20.4696 69.5738 17.205C72.7649 13.9404 76.7657 12.3081 81.5796 12.3081C86.691 12.3081 90.8455 13.9404 94.0494 17.205C97.2501 20.4696 98.8504 24.782 98.8504 30.1389L98.8184 31.6913ZM90.6759 25.2931C90.1382 23.4883 89.0787 22.0189 87.4944 20.8881C85.9101 19.7573 84.0729 19.1919 81.9828 19.1919C79.7136 19.1919 77.7195 19.8276 76.0072 21.0957C74.9318 21.8911 73.9363 23.2902 73.0178 25.2931H90.6759Z" fill="white"/>
<path d="M106.231 61.7213C107.268 61.7213 108.155 62.095 108.897 62.8457C109.64 63.5932 110.008 64.5004 110.008 65.5673C110.008 66.6182 109.64 67.5158 108.907 68.2569C108.174 68.998 107.297 69.3685 106.276 69.3685C105.226 69.3685 104.33 68.9916 103.587 68.2345C102.845 67.4775 102.477 66.5607 102.477 65.481C102.477 64.4429 102.842 63.558 103.578 62.8233C104.311 62.0886 105.194 61.7213 106.231 61.7213Z" fill="#34D186"/>
</g>
<defs>
<filter id="filter0_ii_1201_3221" x="0.0839844" y="0.102539" width="110.369" height="69.2661" filterUnits="userSpaceOnUse" color-interpolation-filters="sRGB">
<feFlood flood-opacity="0" result="BackgroundImageFix"/>
<feBlend mode="normal" in="SourceGraphic" in2="BackgroundImageFix" result="shape"/>
<feColorMatrix in="SourceAlpha" type="matrix" values="0 0 0 0 0 0 0 0 0 0 0 0 0 0 0 0 0 0 127 0" result="hardAlpha"/>
<feOffset/>
<feGaussianBlur stdDeviation="2.5"/>
<feComposite in2="hardAlpha" operator="arithmetic" k2="-1" k3="1"/>
<feColorMatrix type="matrix" values="0 0 0 0 0.0554217 0 0 0 0 0.244578 0 0 0 0 0.154217 0 0 0 0.15 0"/>
<feBlend mode="normal" in2="shape" result="effect1_innerShadow_1201_3221"/>
<feColorMatrix in="SourceAlpha" type="matrix" values="0 0 0 0 0 0 0 0 0 0 0 0 0 0 0 0 0 0 127 0" result="hardAlpha"/>
<feOffset/>
<feGaussianBlur stdDeviation="2.5"/>
<feComposite in2="hardAlpha" operator="arithmetic" k2="-1" k3="1"/>
<feColorMatrix type="matrix" values="0 0 0 0 0.0554217 0 0 0 0 0.244578 0 0 0 0 0.154217 0 0 0 0.1 0"/>
<feBlend mode="normal" in2="effect1_innerShadow_1201_3221" result="effect2_innerShadow_1201_3221"/>
</filter>
</defs>
</svg>
