<svg width="149" height="94" viewBox="0 0 149 94" fill="none" xmlns="http://www.w3.org/2000/svg">
<g filter="url(#filter0_ii_1201_3214)">
<path d="M16.8884 77.8232C8.0515 77.8232 0.888672 70.6746 0.888672 61.8552L0.888672 16.5876C0.888672 7.76827 8.0515 0.619629 16.8884 0.619629L132.525 0.619629C141.362 0.619629 148.525 7.76827 148.525 16.5876V77.8232H16.8884Z" fill="#34D186"/>
<path d="M19.3031 18.0661H29.9638L38.6937 42.7167L48.0871 18.0661H54.6077L63.8299 42.4389L72.5683 18.0661H83.2975L67.4563 61.3937H60.5546L51.2982 36.7047L41.7634 61.3937H34.9388L19.3031 18.0661Z" fill="white"/>
<path d="M132.962 42.8748L97.97 42.8748C98.4752 45.9556 99.8238 48.404 102.02 50.22C104.212 52.0402 107.012 52.9461 110.42 52.9461C114.492 52.9461 117.986 51.5275 120.914 48.686L130.089 52.9888C127.803 56.2277 125.063 58.6249 121.869 60.1759C118.675 61.7313 114.886 62.5047 110.497 62.5047C103.686 62.5047 98.1412 60.3597 93.8598 56.0739C89.5784 51.7882 87.4377 46.4171 87.4377 39.9649C87.4377 33.3547 89.5741 27.8639 93.8427 23.497C98.1113 19.13 103.463 16.9466 109.902 16.9466C116.74 16.9466 122.297 19.13 126.583 23.497C130.864 27.8639 133.005 33.6324 133.005 40.7981L132.962 42.8748ZM122.07 34.3161C121.351 31.9019 119.934 29.9363 117.814 28.4237C115.695 26.9111 113.238 26.1548 110.442 26.1548C107.406 26.1548 104.739 27.0051 102.448 28.7014C101.01 29.7654 99.6783 31.6369 98.4495 34.3161H122.07Z" fill="white"/>
<path d="M142.878 83.0448C144.265 83.0448 145.451 83.5447 146.444 84.5488C147.438 85.5487 147.93 86.7622 147.93 88.1894C147.93 89.5952 147.438 90.7959 146.457 91.7872C145.477 92.7785 144.304 93.2742 142.938 93.2742C141.533 93.2742 140.335 92.77 139.341 91.7573C138.348 90.7446 137.856 89.5183 137.856 88.074C137.856 86.6853 138.344 85.5017 139.329 84.5189C140.309 83.5361 141.491 83.0448 142.878 83.0448Z" fill="#34D186"/>
</g>
<defs>
<filter id="filter0_ii_1201_3214" x="0.888672" y="0.619629" width="147.637" height="92.6548" filterUnits="userSpaceOnUse" color-interpolation-filters="sRGB">
<feFlood flood-opacity="0" result="BackgroundImageFix"/>
<feBlend mode="normal" in="SourceGraphic" in2="BackgroundImageFix" result="shape"/>
<feColorMatrix in="SourceAlpha" type="matrix" values="0 0 0 0 0 0 0 0 0 0 0 0 0 0 0 0 0 0 127 0" result="hardAlpha"/>
<feOffset/>
<feGaussianBlur stdDeviation="4"/>
<feComposite in2="hardAlpha" operator="arithmetic" k2="-1" k3="1"/>
<feColorMatrix type="matrix" values="0 0 0 0 0.0554217 0 0 0 0 0.244578 0 0 0 0 0.154217 0 0 0 0.15 0"/>
<feBlend mode="normal" in2="shape" result="effect1_innerShadow_1201_3214"/>
<feColorMatrix in="SourceAlpha" type="matrix" values="0 0 0 0 0 0 0 0 0 0 0 0 0 0 0 0 0 0 127 0" result="hardAlpha"/>
<feOffset/>
<feGaussianBlur stdDeviation="8"/>
<feComposite in2="hardAlpha" operator="arithmetic" k2="-1" k3="1"/>
<feColorMatrix type="matrix" values="0 0 0 0 0.0554217 0 0 0 0 0.244578 0 0 0 0 0.154217 0 0 0 0.1 0"/>
<feBlend mode="normal" in2="effect1_innerShadow_1201_3214" result="effect2_innerShadow_1201_3214"/>
</filter>
</defs>
</svg>
