<svg width="60" height="60" fill="none" xmlns="http://www.w3.org/2000/svg"><circle cx="30" cy="30" r="30" fill="#34D186"/><path d="M31.452 45.206c-2.896 0-5.407-.877-7.533-2.63-2.095-1.785-3.497-4.4-4.205-7.846h-2.865v-3.184l2.495-.184a4.254 4.254 0 0 1-.046-.6v-1.2c0-.215.015-.415.046-.6H16.85v-3.138l2.865-.23c.37-1.724.924-3.246 1.663-4.57.74-1.353 1.633-2.491 2.68-3.414a11.129 11.129 0 0 1 3.605-2.077c1.325-.492 2.758-.738 4.298-.738 1.386 0 2.742.308 4.067.923 1.325.615 2.48 1.507 3.466 2.676l-3.79 3.646a8.784 8.784 0 0 0-1.848-1.43c-.616-.37-1.325-.554-2.126-.554-1.325 0-2.434.476-3.327 1.43-.863.954-1.48 2.308-1.849 4.061h9.89v3.415H26.137v1.661c0 .216.016.431.046.646h8.411v3.462h-7.948c.43 1.691 1.078 2.984 1.94 3.876.894.892 1.988 1.338 3.282 1.338.893 0 1.663-.215 2.31-.646.678-.43 1.325-1.046 1.941-1.846l3.743 3.507c-1.109 1.385-2.372 2.446-3.79 3.184-1.416.708-2.957 1.062-4.62 1.062z" fill="#F9FDFF"/></svg>