<svg width="95" height="95" fill="none" xmlns="http://www.w3.org/2000/svg"><circle cx="47.5" cy="47.5" r="47.5" fill="#34D186"/><path d="M49.8 71.575c-4.586 0-8.562-1.388-11.927-4.165-3.317-2.825-5.537-6.965-6.659-12.42h-4.536v-5.042l3.95-.293a6.733 6.733 0 0 1-.072-.95v-1.9c0-.34.024-.657.073-.95h-3.951v-4.968l4.536-.365c.586-2.728 1.464-5.139 2.634-7.233 1.171-2.144 2.586-3.946 4.244-5.407a17.621 17.621 0 0 1 5.707-3.288c2.098-.78 4.366-1.17 6.805-1.17 2.195 0 4.342.488 6.439 1.462 2.098.974 3.927 2.387 5.488 4.238l-6 5.772c-.927-.925-1.903-1.68-2.927-2.265-.975-.585-2.097-.877-3.366-.877-2.097 0-3.853.755-5.268 2.265-1.366 1.51-2.341 3.654-2.927 6.43h15.659v5.407H41.385v2.63c0 .341.024.682.073 1.023h13.317v5.48H42.19c.683 2.68 1.707 4.725 3.073 6.138 1.414 1.412 3.146 2.119 5.195 2.119 1.414 0 2.634-.341 3.658-1.023 1.073-.682 2.098-1.656 3.073-2.923l5.927 5.553c-1.756 2.192-3.756 3.873-6 5.042-2.244 1.12-4.683 1.68-7.317 1.68z" fill="#F9FDFF"/></svg>