<svg width="30" height="30" fill="none" xmlns="http://www.w3.org/2000/svg"><path fill-rule="evenodd" clip-rule="evenodd" d="M15 27.188c.431 0 1.58-.424 2.788-2.84.574-1.147 1.056-2.568 1.391-4.192h-8.358c.335 1.624.817 3.045 1.39 4.193 1.208 2.415 2.358 2.838 2.789 2.838zm-4.586-9.844a27.099 27.099 0 0 1 0-4.688h9.172c.136 1.56.136 3.128 0 4.688h-9.172zm11.63 2.812c-.42 2.295-1.111 4.328-1.998 5.94a12.235 12.235 0 0 0 6-5.94h-4.002zm4.918-2.812h-4.556c.122-1.56.122-3.128 0-4.688h4.555c.301 1.548.301 3.14 0 4.688h.002zm-19.37 0H3.038a12.25 12.25 0 0 1 0-4.688h4.556a29.99 29.99 0 0 0 0 4.688h-.002zm-3.638 2.812h4.002c.42 2.295 1.112 4.328 1.998 5.94a12.235 12.235 0 0 1-6-5.94zm6.867-10.312h8.358c-.335-1.624-.817-3.045-1.39-4.193C16.58 3.236 15.43 2.813 15 2.813c-.431 0-1.58.423-2.788 2.838-.574 1.148-1.056 2.569-1.391 4.193zm11.223 0h4.002a12.236 12.236 0 0 0-6-5.94c.887 1.612 1.578 3.645 1.998 5.94zM9.956 3.904c-.887 1.612-1.579 3.645-1.998 5.94H3.954a12.238 12.238 0 0 1 6.002-5.94zM15 0a15 15 0 1 1 0 30 15 15 0 0 1 0-30z" fill="#000"/></svg>