<svg width="228" height="55" fill="none" xmlns="http://www.w3.org/2000/svg"><path d="M86.293 45.1H9.992C4.87 45.1.717 40.923.717 35.772V9.328C.717 4.176 4.87 0 9.992 0h67.027c5.122 0 9.274 4.176 9.274 9.328V45.1z" fill="#34D186"/><path d="M11.394 10.192h6.18l5.058 14.4 5.444-14.4h3.78l5.346 14.235 5.065-14.235h6.221l-9.183 25.31h-4l-5.366-14.423-5.526 14.423H20.46l-9.066-25.31zM77.275 24.684H56.989c.294 1.8 1.077 3.23 2.346 4.29 1.273 1.065 2.896 1.595 4.87 1.595 2.358 0 4.386-.829 6.081-2.49l5.321 2.512c-1.326 1.893-2.914 3.29-4.765 4.2-1.85.908-4.048 1.362-6.59 1.362-3.947 0-7.162-1.252-9.644-3.758-2.482-2.505-3.723-5.64-3.723-9.41 0-3.862 1.238-7.067 3.71-9.62 2.476-2.55 5.577-3.827 9.31-3.827 3.963 0 7.183 1.276 9.669 3.827 2.482 2.55 3.723 5.92 3.723 10.106l-.022 1.213zm-6.316-4.999c-.417-1.41-1.238-2.56-2.466-3.443-1.229-.883-2.653-1.324-4.276-1.324-1.762 0-3.306.495-4.632 1.49-.834.619-1.608 1.714-2.318 3.28h13.692v-.003zM102.66 19.7h6.315v25.31h-6.315V19.7zM91.304 9.931h6.316v35.08h-6.316V9.93z" fill="#fff"/><path d="M105.818 9.28c1.105 0 2.055.404 2.848 1.21.792.807 1.187 1.785 1.187 2.932 0 1.13-.391 2.096-1.175 2.896-.783.8-1.721 1.198-2.813 1.198-1.121 0-2.081-.407-2.871-1.223-.792-.813-1.187-1.804-1.187-2.966 0-1.118.392-2.071 1.175-2.862.783-.79 1.727-1.185 2.836-1.185z" fill="#34D186"/><path d="M114.71 19.701h6.315v2.595c1.431-1.213 2.729-2.058 3.891-2.535a9.385 9.385 0 0 1 3.568-.711c2.495 0 4.611.877 6.35 2.63 1.463 1.49 2.195 3.69 2.195 6.606V45.01h-6.246V33.926c0-3.02-.136-5.024-.404-6.018-.269-.994-.739-1.747-1.409-2.265-.669-.517-1.496-.778-2.478-.778-1.276 0-2.372.429-3.288 1.29-.915.86-1.55 2.048-1.904 3.566-.183.791-.278 2.503-.278 5.136v10.154h-6.315V19.7h.003zM161.729 19.7h6.29v21.68c0 4.282-.855 7.43-2.567 9.446-2.299 2.728-5.76 4.094-10.386 4.094-2.466 0-4.541-.311-6.221-.93-1.68-.62-3.097-1.532-4.256-2.735-1.156-1.204-2.012-2.665-2.568-4.386h6.963c.616.714 1.412 1.251 2.381 1.616.97.365 2.119.547 3.445.547 1.696 0 3.06-.264 4.093-.791s1.762-1.21 2.185-2.049c.423-.838.635-2.28.635-4.326-1.112 1.118-2.274 1.919-3.493 2.408-1.219.489-2.598.733-4.139.733-3.376 0-6.231-1.225-8.558-3.674s-3.493-5.552-3.493-9.306c0-4.018 1.235-7.241 3.701-9.677 2.236-2.201 4.904-3.303 8.002-3.303 1.45 0 2.817.266 4.105.803 1.289.534 2.58 1.417 3.875 2.64V19.7h.006zm-6.546 5.283c-1.989 0-3.631.67-4.926 2.013-1.295 1.34-1.942 3.027-1.942 5.06 0 2.109.663 3.836 1.989 5.186 1.327 1.35 2.991 2.023 4.996 2.023 1.958 0 3.575-.66 4.844-1.978 1.273-1.319 1.907-3.046 1.907-5.187 0-2.109-.641-3.824-1.92-5.142-1.279-1.318-2.927-1.975-4.948-1.975zM174.382 19.7h6.382v12.19c0 2.373.161 4.021.486 4.943.326.924.847 1.638 1.567 2.15.72.511 1.604.768 2.655.768 1.052 0 1.942-.25 2.678-.756.736-.505 1.279-1.245 1.636-2.22.262-.727.395-2.286.395-4.675V19.7h6.315v10.723c0 4.421-.347 7.445-1.042 9.071-.849 1.985-2.097 3.51-3.748 4.57-1.652 1.061-3.748 1.595-6.29 1.595-2.76 0-4.993-.62-6.695-1.861-1.705-1.242-2.902-2.97-3.597-5.187-.492-1.534-.739-4.326-.739-8.375V19.7h-.003zM221.402 19.701h6.315v25.31h-6.315v-2.674c-1.232 1.178-2.47 2.026-3.708 2.547-1.241.517-2.583.778-4.032.778-3.249 0-6.06-1.267-8.431-3.802-2.372-2.534-3.559-5.688-3.559-9.455 0-3.906 1.146-7.111 3.442-9.607 2.296-2.497 5.081-3.745 8.362-3.745 1.509 0 2.927.286 4.25.86 1.323.576 2.548 1.436 3.673 2.583V19.7h.003zm-6.638 5.212c-1.951 0-3.571.695-4.863 2.083-1.291 1.388-1.936 3.167-1.936 5.34 0 2.184.657 3.985 1.971 5.395 1.313 1.41 2.93 2.119 4.853 2.119 1.983 0 3.629-.693 4.933-2.08 1.304-1.389 1.961-3.208 1.961-5.457 0-2.201-.654-3.986-1.961-5.352-1.311-1.368-2.962-2.048-4.958-2.048z" fill="#fff"/></svg>