<svg width="227" height="55" fill="none" xmlns="http://www.w3.org/2000/svg"><path d="M85.47 44.872H9.262C4.147 44.872 0 40.717 0 35.592V9.28C0 4.155 4.147 0 9.263 0h66.943c5.116 0 9.263 4.155 9.263 9.28v35.592z" fill="#34D186"/><path d="M10.663 10.14h6.172l5.053 14.328 5.437-14.328H31.1l5.34 14.164 5.058-14.164h6.213L38.54 35.322h-3.996l-5.358-14.35-5.52 14.35h-3.948L10.663 10.14zM76.462 24.56h-20.26c.293 1.791 1.075 3.213 2.343 4.269 1.27 1.058 2.892 1.586 4.863 1.586 2.356 0 4.38-.825 6.074-2.477l5.315 2.5c-1.325 1.883-2.911 3.273-4.76 4.177-1.848.903-4.043 1.355-6.582 1.355-3.942 0-7.152-1.245-9.631-3.738-2.48-2.493-3.719-5.612-3.719-9.363 0-3.843 1.237-7.031 3.706-9.572 2.472-2.537 5.57-3.808 9.297-3.808 3.959 0 7.176 1.27 9.658 3.808 2.478 2.538 3.718 5.89 3.718 10.055l-.022 1.207zm-6.308-4.974c-.416-1.403-1.236-2.547-2.463-3.426-1.227-.878-2.65-1.318-4.27-1.318-1.76 0-3.302.493-4.627 1.483-.833.616-1.605 1.706-2.315 3.264h13.675v-.003z" fill="#fff"/><path d="M101.816 19.602h6.307v25.181h-6.307V19.602zM90.474 9.881h6.308v34.902h-6.308V9.881z" fill="#232524"/><path d="M104.969 9.234c1.104 0 2.054.4 2.845 1.204.792.802 1.186 1.775 1.186 2.916 0 1.125-.391 2.086-1.173 2.882-.782.796-1.719 1.191-2.81 1.191-1.12 0-2.079-.404-2.867-1.216-.792-.81-1.186-1.795-1.186-2.952 0-1.112.391-2.06 1.173-2.847.782-.787 1.725-1.178 2.832-1.178z" fill="#34D186"/><path d="M120.158 19.602v2.581c1.429-1.207 2.725-2.047 3.886-2.521a9.41 9.41 0 0 1 3.564-.708c2.491 0 4.604.872 6.342 2.616 1.46 1.482 2.192 3.672 2.192 6.573v16.64h-6.238V33.755c0-3.005-.136-4.999-.404-5.988-.268-.99-.738-1.738-1.407-2.253-.668-.515-1.494-.774-2.475-.774-1.274 0-2.369.426-3.283 1.283-.915.856-1.549 2.038-1.902 3.548-.183.787-.278 2.49-.278 5.11v10.102h-6.307V19.602h6.31zM167.094 19.602v21.57c0 4.26-.855 7.39-2.564 9.398-2.296 2.714-5.753 4.073-10.373 4.073-2.463 0-4.535-.31-6.213-.926-1.678-.616-3.094-1.523-4.252-2.72-1.154-1.199-2.009-2.652-2.564-4.365h6.955c.615.711 1.409 1.245 2.378 1.609.968.363 2.116.543 3.44.543 1.694 0 3.056-.262 4.088-.787 1.031-.524 1.76-1.204 2.182-2.038.423-.834.634-2.269.634-4.304-1.11 1.112-2.271 1.909-3.488 2.395-1.217.487-2.596.73-4.135.73-3.371 0-6.222-1.22-8.547-3.656-2.324-2.436-3.488-5.523-3.488-9.259 0-3.997 1.233-7.204 3.697-9.628 2.232-2.19 4.897-3.286 7.991-3.286 1.448 0 2.814.265 4.1.799 1.287.53 2.577 1.41 3.87 2.626v-2.774h6.289zm-12.82 5.255c-1.987 0-3.627.666-4.92 2.003-1.294 1.334-1.94 3.012-1.94 5.034 0 2.098.662 3.817 1.987 5.16 1.324 1.343 2.987 2.013 4.989 2.013 1.956 0 3.57-.657 4.838-1.969 1.271-1.311 1.905-3.03 1.905-5.16 0-2.098-.64-3.804-1.917-5.116-1.278-1.311-2.924-1.965-4.942-1.965zM173.449 19.602h6.374V31.73c0 2.36.161 4 .486 4.917.324.92.845 1.63 1.564 2.139.719.509 1.602.765 2.652.765s1.94-.25 2.675-.753c.735-.502 1.277-1.238 1.633-2.208.262-.724.395-2.276.395-4.652V19.602h6.307V30.27c0 4.398-.347 7.407-1.04 9.025-.849 1.975-2.095 3.491-3.744 4.547-1.65 1.055-3.744 1.586-6.283 1.586-2.756 0-4.986-.616-6.686-1.852-1.703-1.235-2.898-2.954-3.592-5.16-.492-1.526-.738-4.304-.738-8.333V19.602h-.003zM226.717 19.602v25.181h-6.307v-2.66c-1.23 1.172-2.467 2.016-3.703 2.534-1.239.515-2.58.774-4.027.774-3.246 0-6.053-1.26-8.421-3.782-2.369-2.522-3.555-5.66-3.555-9.407 0-3.887 1.145-7.076 3.438-9.56 2.293-2.483 5.075-3.725 8.352-3.725 1.507 0 2.923.284 4.245.856 1.321.572 2.545 1.428 3.668 2.57v-2.781h6.31zm-12.937 5.185c-1.949 0-3.567.692-4.857 2.073-1.29 1.38-1.933 3.15-1.933 5.312 0 2.174.656 3.966 1.968 5.369 1.312 1.403 2.927 2.108 4.848 2.108 1.98 0 3.623-.69 4.926-2.07 1.302-1.381 1.958-3.192 1.958-5.43 0-2.189-.652-3.965-1.958-5.324-1.309-1.362-2.958-2.038-4.952-2.038z" fill="#232524"/></svg>