<svg width="148" height="94" fill="none" xmlns="http://www.w3.org/2000/svg"><path d="M16 77.858c-8.837 0-16-7.148-16-15.968V16.622C0 7.803 7.163.655 16 .655h115.637c8.837 0 15.999 7.148 15.999 15.967v61.236H16z" fill="#fff"/><path d="M18.414 18.101h10.661l8.73 24.65 9.393-24.65h6.521l9.222 24.373L71.68 18.1h10.729L66.568 61.429h-6.902l-9.256-24.69-9.535 24.69H34.05L18.414 18.1zM132.073 42.91H97.081c.505 3.08 1.854 5.529 4.051 7.345 2.192 1.82 4.992 2.726 8.4 2.726 4.071 0 7.565-1.419 10.493-4.26l9.176 4.303c-2.287 3.239-5.027 5.636-8.221 7.187-3.194 1.555-6.983 2.329-11.371 2.329-6.812 0-12.356-2.145-16.638-6.431-4.281-4.286-6.422-9.657-6.422-16.11 0-6.61 2.136-12.1 6.405-16.467 4.269-4.367 9.62-6.55 16.06-6.55 6.837 0 12.394 2.183 16.68 6.55 4.282 4.367 6.422 10.135 6.422 17.301l-.043 2.077zm-10.892-8.559c-.719-2.414-2.136-4.38-4.255-5.892-2.12-1.513-4.577-2.27-7.373-2.27-3.035 0-5.703.851-7.993 2.547-1.439 1.064-2.77 2.936-4 5.615h23.621z" fill="#34D186"/><path d="M141.989 83.08c1.387 0 2.573.5 3.567 1.504.993 1 1.485 2.213 1.485 3.64 0 1.406-.492 2.607-1.473 3.598-.98.991-2.153 1.487-3.519 1.487-1.404 0-2.603-.504-3.596-1.517-.994-1.013-1.486-2.239-1.486-3.683 0-1.389.488-2.572 1.473-3.555.98-.983 2.162-1.474 3.549-1.474z" fill="#fff"/></svg>