<svg width="148" height="93" fill="none" xmlns="http://www.w3.org/2000/svg"><path d="M16 77.204c-8.837 0-16-7.15-16-15.968V15.968C0 7.148 7.163 0 16 0h115.637c8.837 0 15.999 7.149 15.999 15.968v61.236H16z" fill="#34D186"/><path d="M18.414 17.446h10.661l8.73 24.651 9.393-24.65h6.521l9.222 24.372 8.739-24.373h10.729L66.568 60.774h-6.902L50.41 36.085l-9.535 24.69H34.05L18.414 17.445zM132.073 42.255H97.081c.505 3.08 1.854 5.53 4.051 7.345 2.192 1.82 4.992 2.727 8.4 2.727 4.071 0 7.565-1.42 10.493-4.26l9.176 4.302c-2.287 3.24-5.027 5.636-8.221 7.187-3.194 1.556-6.983 2.33-11.371 2.33-6.812 0-12.356-2.146-16.638-6.432-4.281-4.285-6.422-9.657-6.422-16.109 0-6.61 2.136-12.1 6.405-16.468 4.269-4.367 9.62-6.55 16.06-6.55 6.837 0 12.394 2.183 16.68 6.55 4.282 4.367 6.422 10.136 6.422 17.302l-.043 2.076zm-10.892-8.559c-.719-2.414-2.136-4.38-4.255-5.892-2.12-1.513-4.577-2.269-7.373-2.269-3.035 0-5.703.85-7.993 2.547-1.439 1.064-2.77 2.935-4 5.614h23.621z" fill="#fff"/><path d="M141.989 82.425c1.387 0 2.573.5 3.567 1.504.993 1 1.485 2.214 1.485 3.64 0 1.407-.492 2.607-1.473 3.599-.98.99-2.153 1.487-3.519 1.487-1.404 0-2.603-.505-3.596-1.517-.994-1.013-1.486-2.24-1.486-3.684 0-1.388.488-2.572 1.473-3.555.98-.983 2.162-1.474 3.549-1.474z" fill="#34D186"/></svg>