<svg width="125" height="30" fill="none" xmlns="http://www.w3.org/2000/svg"><path d="M46.924 24.636H5.086A5.09 5.09 0 0 1 0 19.54V5.095A5.09 5.09 0 0 1 5.085 0H41.84a5.09 5.09 0 0 1 5.085 5.095v19.54z" fill="#34D186"/><path d="M5.854 5.567h3.389l2.774 7.866 2.985-7.866h2.073l2.931 7.776 2.777-7.776h3.412l-5.036 13.826h-2.194l-2.941-7.878-3.03 7.878h-2.168L5.853 5.567zM41.98 13.484H30.855c.16.983.59 1.764 1.286 2.344.698.58 1.588.87 2.67.87 1.294 0 2.406-.452 3.335-1.36l2.918 1.373c-.727 1.034-1.598 1.797-2.613 2.293-1.015.496-2.22.744-3.614.744-2.164 0-3.927-.683-5.288-2.052-1.36-1.369-2.041-3.081-2.041-5.14 0-2.11.678-3.86 2.034-5.256 1.358-1.393 3.058-2.09 5.105-2.09 2.173 0 3.94.697 5.302 2.09 1.36 1.394 2.041 3.234 2.041 5.521l-.012.663zm-3.464-2.731a3.478 3.478 0 0 0-1.352-1.88c-.674-.483-1.455-.724-2.345-.724-.966 0-1.813.27-2.54.814-.457.338-.881.936-1.27 1.792h7.507v-.002z" fill="#fff"/><path d="M55.899 10.762h3.463v13.825h-3.463V10.762zM49.672 5.425h3.463v19.162h-3.463V5.425z" fill="#232524"/><path d="M57.63 5.07c.606 0 1.128.22 1.562.66.435.441.651.975.651 1.602 0 .617-.214 1.145-.644 1.582-.43.437-.944.654-1.543.654a2.114 2.114 0 0 1-1.574-.668 2.232 2.232 0 0 1-.65-1.62c0-.611.214-1.131.643-1.563a2.11 2.11 0 0 1 1.555-.648z" fill="#34D186"/><path d="M65.97 10.762v1.417c.784-.663 1.496-1.124 2.133-1.384a5.164 5.164 0 0 1 1.956-.389c1.368 0 2.528.479 3.482 1.436.802.814 1.204 2.016 1.204 3.61v9.135H71.32v-6.055c0-1.65-.075-2.744-.222-3.287-.147-.543-.405-.955-.772-1.237-.367-.283-.82-.425-1.36-.425-.699 0-1.3.234-1.802.704s-.85 1.119-1.044 1.948c-.1.432-.152 1.367-.152 2.806v5.546h-3.463V10.762h3.464zM91.738 10.762v11.842c0 2.339-.47 4.058-1.408 5.16C89.07 29.254 87.172 30 84.635 30c-1.352 0-2.49-.17-3.41-.508-.922-.339-1.7-.837-2.335-1.494-.634-.658-1.103-1.456-1.408-2.396H81.3c.338.39.774.684 1.306.883.532.2 1.162.299 1.89.299.929 0 1.677-.144 2.243-.432.566-.288.966-.662 1.198-1.12.232-.457.348-1.245.348-2.363-.61.611-1.246 1.048-1.915 1.316-.668.267-1.425.4-2.27.4-1.85 0-3.416-.67-4.692-2.007-1.276-1.337-1.915-3.032-1.915-5.083 0-2.195.677-3.956 2.03-5.287 1.225-1.202 2.688-1.804 4.387-1.804a5.81 5.81 0 0 1 2.25.44c.707.29 1.416.773 2.125 1.44v-1.522h3.453zM84.7 13.647c-1.09 0-1.99.366-2.7 1.1-.71.732-1.066 1.653-1.066 2.763 0 1.152.364 2.096 1.091 2.833.727.738 1.64 1.106 2.74 1.106 1.073 0 1.96-.361 2.656-1.081.697-.72 1.046-1.664 1.046-2.833 0-1.152-.352-2.09-1.053-2.81-.702-.72-1.605-1.078-2.714-1.078zM95.227 10.762h3.5v6.658c0 1.296.088 2.197.266 2.7.178.505.464.895.859 1.174.395.28.88.42 1.456.42.577 0 1.065-.137 1.469-.413.403-.276.701-.68.896-1.212.144-.398.217-1.25.217-2.554v-6.773h3.463v5.857c0 2.415-.19 4.066-.571 4.955-.466 1.084-1.15 1.917-2.056 2.496-.905.58-2.055.871-3.449.871-1.513 0-2.737-.338-3.67-1.017-.936-.678-1.592-1.622-1.973-2.833-.27-.838-.405-2.363-.405-4.575v-5.754h-.002zM124.473 10.762v13.825h-3.463v-1.46c-.676.643-1.355 1.106-2.033 1.39a5.704 5.704 0 0 1-2.211.426c-1.782 0-3.323-.693-4.624-2.077-1.3-1.384-1.951-3.107-1.951-5.165 0-2.134.629-3.884 1.887-5.248 1.259-1.364 2.786-2.045 4.585-2.045.828 0 1.606.156 2.331.47.726.314 1.397.784 2.014 1.41v-1.526h3.465zm-7.103 2.847c-1.07 0-1.958.38-2.667 1.138-.708.758-1.061 1.73-1.061 2.916 0 1.194.36 2.177 1.08 2.948.721.77 1.607 1.157 2.662 1.157 1.087 0 1.989-.378 2.704-1.137.715-.758 1.076-1.752 1.076-2.98 0-1.202-.359-2.177-1.076-2.923-.718-.748-1.624-1.12-2.718-1.12z" fill="#232524"/></svg>