<svg width="166" height="40" fill="none" xmlns="http://www.w3.org/2000/svg"><path d="M62.566 32.848H6.78C3.036 32.848 0 29.806 0 26.054V6.794C0 3.042 3.036 0 6.78 0h49.005c3.745 0 6.78 3.042 6.78 6.794v26.054z" fill="#34D186"/><path d="M7.806 7.423h4.518l3.698 10.488 3.98-10.488h2.764l3.909 10.368 3.703-10.368h4.548l-6.714 18.434h-2.925l-3.922-10.504-4.04 10.504h-2.891L7.806 7.423zM55.972 17.978h-14.83c.214 1.312.786 2.353 1.714 3.125.93.775 2.117 1.162 3.56 1.162 1.725 0 3.207-.604 4.447-1.814l3.89 1.83c-.97 1.379-2.13 2.396-3.484 3.058-1.352.662-2.96.992-4.818.992-2.886 0-5.236-.911-7.05-2.736-1.815-1.825-2.723-4.108-2.723-6.854 0-2.813.905-5.147 2.713-7.007 1.81-1.858 4.077-2.787 6.806-2.787 2.898 0 5.252.93 7.07 2.787 1.814 1.857 2.721 4.312 2.721 7.36l-.016.884zm-4.617-3.64c-.305-1.028-.905-1.865-1.803-2.508-.898-.643-1.94-.965-3.126-.965-1.288 0-2.418.361-3.387 1.085-.61.451-1.175 1.25-1.695 2.39h10.01v-.003z" fill="#fff"/><path d="M74.532 14.349h4.617v18.434h-4.617V14.349zM66.23 7.233h4.617v25.55H66.23V7.233z" fill="#232524"/><path d="M76.84 6.76c.809 0 1.504.293 2.083.88.58.588.868 1.3.868 2.136 0 .823-.286 1.526-.859 2.11-.572.582-1.258.871-2.057.871-.82 0-1.521-.296-2.098-.89-.58-.592-.868-1.314-.868-2.16 0-.815.286-1.509.858-2.085a2.814 2.814 0 0 1 2.074-.863z" fill="#34D186"/><path d="M87.96 14.349v1.89c1.045-.884 1.994-1.5 2.844-1.846a6.885 6.885 0 0 1 2.608-.518c1.824 0 3.371.638 4.643 1.915 1.07 1.085 1.605 2.688 1.605 4.811v12.182h-4.567V24.71c0-2.2-.1-3.66-.295-4.384-.197-.724-.54-1.272-1.03-1.65-.49-.376-1.094-.566-1.812-.566-.933 0-1.734.312-2.404.94-.67.626-1.133 1.491-1.392 2.597-.134.576-.203 1.823-.203 3.74v7.396H83.34V14.349h4.62zM122.317 14.349v15.79c0 3.118-.625 5.41-1.877 6.88-1.68 1.986-4.211 2.981-7.593 2.981-1.803 0-3.32-.227-4.548-.678-1.228-.45-2.265-1.115-3.112-1.991-.845-.877-1.471-1.941-1.877-3.195h5.091c.45.52 1.032.911 1.74 1.177.709.267 1.549.398 2.519.398 1.24 0 2.237-.192 2.992-.576.755-.384 1.288-.881 1.598-1.492.309-.61.464-1.66.464-3.15-.813.814-1.662 1.397-2.554 1.753-.891.356-1.9.535-3.026.535-2.468 0-4.555-.893-6.257-2.677-1.701-1.783-2.553-4.043-2.553-6.778 0-2.926.902-5.274 2.706-7.048 1.634-1.603 3.585-2.406 5.85-2.406 1.059 0 2.059.195 3.001.586.942.388 1.886 1.031 2.833 1.922v-2.031h4.603zm-9.384 3.847c-1.455 0-2.655.488-3.602 1.466-.947.976-1.42 2.205-1.42 3.685 0 1.536.485 2.795 1.455 3.778.969.983 2.186 1.473 3.652 1.473 1.431 0 2.613-.481 3.542-1.44.93-.96 1.394-2.22 1.394-3.778 0-1.536-.469-2.785-1.404-3.745-.935-.96-2.14-1.44-3.617-1.44zM126.969 14.349h4.666v8.878c0 1.728.118 2.928.356 3.6.238.672.619 1.193 1.145 1.565.526.373 1.173.56 1.942.56.768 0 1.419-.183 1.957-.55.538-.368.935-.907 1.196-1.617.192-.53.289-1.666.289-3.405v-9.031h4.617v7.81c0 3.22-.254 5.421-.762 6.606-.621 1.445-1.533 2.556-2.74 3.328-1.207.773-2.74 1.162-4.599 1.162-2.018 0-3.65-.451-4.894-1.356-1.247-.904-2.122-2.163-2.63-3.777-.36-1.118-.54-3.15-.54-6.1v-7.673h-.003zM165.963 14.349v18.434h-4.617v-1.948c-.9.858-1.805 1.476-2.71 1.855a7.607 7.607 0 0 1-2.949.567c-2.375 0-4.43-.923-6.164-2.769s-2.602-4.143-2.602-6.886c0-2.846.838-5.18 2.517-6.998 1.678-1.818 3.714-2.727 6.113-2.727 1.104 0 2.14.208 3.108.627.967.418 1.863 1.045 2.685 1.88V14.35h4.619zm-9.47 3.796c-1.427 0-2.611.506-3.555 1.517-.945 1.011-1.415 2.306-1.415 3.889 0 1.591.48 2.903 1.44 3.93.961 1.027 2.143 1.543 3.549 1.543 1.449 0 2.652-.505 3.606-1.515.953-1.011 1.434-2.337 1.434-3.974 0-1.604-.478-2.904-1.434-3.898-.958-.997-2.166-1.492-3.625-1.492z" fill="#232524"/></svg>