<svg width="258" height="162" fill="none" xmlns="http://www.w3.org/2000/svg"><g filter="url(#a)"><path d="M27.927 134.945C12.503 134.945 0 122.45 0 107.035V27.911C0 12.495 12.503 0 27.927 0h201.845C245.197 0 257.7 12.495 257.7 27.91v107.035H27.928z" fill="#fff"/><path d="M32.142 30.495h18.609l15.238 43.087 16.396-43.087h11.382l16.097 42.602 15.253-42.602h18.728l-27.651 75.733h-12.047L87.99 63.074l-16.643 43.154H59.435L32.142 30.495zM230.535 73.858h-61.079c.882 5.385 3.236 9.665 7.07 12.84 3.826 3.18 8.713 4.764 14.662 4.764 7.107 0 13.205-2.48 18.317-7.446l16.015 7.52c-3.991 5.662-8.773 9.852-14.349 12.563-5.575 2.719-12.188 4.071-19.848 4.071-11.89 0-21.568-3.749-29.041-11.24-7.474-7.492-11.21-16.88-11.21-28.158 0-11.554 3.729-21.151 11.18-28.784 7.45-7.633 16.792-11.45 28.032-11.45 11.935 0 21.635 3.817 29.116 11.45 7.473 7.633 11.209 17.715 11.209 30.24l-.074 3.63zm-19.012-14.96c-1.256-4.22-3.729-7.655-7.429-10.299-3.699-2.644-7.989-3.966-12.869-3.966-5.298 0-9.954 1.486-13.952 4.452-2.511 1.86-4.835 5.13-6.98 9.813h41.23z" fill="#34D186"/><path d="M247.843 144.072c2.421 0 4.491.874 6.225 2.629 1.734 1.748 2.593 3.869 2.593 6.363 0 2.458-.859 4.556-2.571 6.289-1.711 1.733-3.759 2.599-6.143 2.599-2.451 0-4.543-.881-6.277-2.651-1.734-1.77-2.593-3.914-2.593-6.438 0-2.428.852-4.496 2.57-6.214 1.712-1.718 3.774-2.577 6.196-2.577z" fill="#fff"/></g><defs><filter id="a" x="0" y="0" width="257.699" height="161.952" filterUnits="userSpaceOnUse" color-interpolation-filters="sRGB"><feFlood flood-opacity="0" result="BackgroundImageFix"/><feBlend in="SourceGraphic" in2="BackgroundImageFix" result="shape"/><feColorMatrix in="SourceAlpha" values="0 0 0 0 0 0 0 0 0 0 0 0 0 0 0 0 0 0 127 0" result="hardAlpha"/><feOffset/><feGaussianBlur stdDeviation="4.5"/><feComposite in2="hardAlpha" operator="arithmetic" k2="-1" k3="1"/><feColorMatrix values="0 0 0 0 0.0554217 0 0 0 0 0.244578 0 0 0 0 0.154217 0 0 0 0.15 0"/><feBlend in2="shape" result="effect1_innerShadow_1256_131"/><feColorMatrix in="SourceAlpha" values="0 0 0 0 0 0 0 0 0 0 0 0 0 0 0 0 0 0 127 0" result="hardAlpha"/><feOffset/><feGaussianBlur stdDeviation="8"/><feComposite in2="hardAlpha" operator="arithmetic" k2="-1" k3="1"/><feColorMatrix values="0 0 0 0 0.0554217 0 0 0 0 0.244578 0 0 0 0 0.154217 0 0 0 0.1 0"/><feBlend in2="effect1_innerShadow_1256_131" result="effect2_innerShadow_1256_131"/></filter></defs></svg>