<svg width="259" height="163" fill="none" xmlns="http://www.w3.org/2000/svg"><path d="M28.495 135.535C13.07 135.535.567 123.04.567 107.624V28.5C.567 13.085 13.07.59 28.495.59H230.34c15.425 0 27.927 12.495 27.927 27.91v107.035H28.495z" fill="#34D186"/><path d="M32.71 31.084h18.608l15.238 43.088 16.396-43.087h11.382l16.098 42.601 15.252-42.602h18.728l-27.651 75.734h-12.046L88.557 63.663l-16.643 43.155H60.002L32.71 31.085zM231.102 74.448h-61.079c.882 5.385 3.236 9.665 7.07 12.839 3.826 3.181 8.714 4.765 14.662 4.765 7.107 0 13.206-2.48 18.317-7.447l16.015 7.521c-3.99 5.662-8.773 9.852-14.348 12.563-5.575 2.719-12.189 4.07-19.849 4.07-11.89 0-21.568-3.749-29.041-11.24-7.473-7.491-11.21-16.88-11.21-28.157 0-11.554 3.729-21.152 11.18-28.785 7.451-7.633 16.792-11.45 28.032-11.45 11.935 0 21.635 3.817 29.116 11.45 7.473 7.633 11.21 17.716 11.21 30.241l-.075 3.63zm-19.012-14.96c-1.255-4.22-3.729-7.655-7.428-10.3-3.7-2.643-7.989-3.965-12.869-3.965-5.299 0-9.955 1.486-13.953 4.451-2.511 1.86-4.835 5.131-6.98 9.814h41.23z" fill="#fff"/><path d="M248.41 144.662c2.421 0 4.491.874 6.225 2.629 1.734 1.747 2.593 3.869 2.593 6.363 0 2.457-.859 4.556-2.57 6.289-1.712 1.733-3.759 2.599-6.143 2.599-2.452 0-4.544-.881-6.278-2.652-1.734-1.77-2.593-3.913-2.593-6.438 0-2.427.852-4.496 2.571-6.214 1.711-1.717 3.774-2.576 6.195-2.576z" fill="#34D186"/></svg>