<svg width="180" height="114" fill="none" xmlns="http://www.w3.org/2000/svg"><g filter="url(#a)"><path d="M19.507 94.258C8.733 94.258 0 85.53 0 74.762V19.495C0 8.728 8.733 0 19.507 0h140.986C171.267 0 180 8.728 180 19.495v74.763H19.507z" fill="#34D186"/><path d="M22.451 21.3H35.45l10.643 30.096L57.545 21.3h7.95l11.244 29.757L87.393 21.3h13.081L81.16 74.2h-8.415L61.46 44.056 49.835 74.2h-8.32L22.45 21.3zM161.025 51.59h-42.662c.616 3.76 2.26 6.75 4.938 8.967 2.672 2.222 6.086 3.328 10.241 3.328 4.965 0 9.224-1.732 12.794-5.2l11.187 5.252c-2.788 3.955-6.128 6.881-10.023 8.775-3.894 1.899-8.513 2.843-13.864 2.843-8.305 0-15.065-2.619-20.285-7.851-5.219-5.232-7.829-11.79-7.829-19.667 0-8.07 2.604-14.774 7.809-20.106 5.204-5.332 11.729-7.998 19.58-7.998 8.336 0 15.111 2.666 20.337 7.998 5.22 5.332 7.83 12.374 7.83 21.123l-.053 2.535zm-13.279-10.45c-.877-2.948-2.605-5.347-5.189-7.194-2.584-1.847-5.58-2.77-8.989-2.77-3.701 0-6.953 1.038-9.745 3.109-1.754 1.299-3.378 3.584-4.876 6.855h28.799z" fill="#fff"/><path d="M173.115 100.633c1.691 0 3.137.61 4.348 1.836 1.211 1.221 1.811 2.702 1.811 4.445 0 1.716-.6 3.182-1.795 4.392-1.196 1.21-2.626 1.816-4.291 1.816-1.712 0-3.174-.616-4.385-1.852-1.211-1.237-1.811-2.734-1.811-4.497 0-1.696.595-3.141 1.795-4.341 1.196-1.2 2.637-1.799 4.328-1.799z" fill="#34D186"/></g><defs><filter id="a" x="0" y="0" width="180" height="113.122" filterUnits="userSpaceOnUse" color-interpolation-filters="sRGB"><feFlood flood-opacity="0" result="BackgroundImageFix"/><feBlend in="SourceGraphic" in2="BackgroundImageFix" result="shape"/><feColorMatrix in="SourceAlpha" values="0 0 0 0 0 0 0 0 0 0 0 0 0 0 0 0 0 0 127 0" result="hardAlpha"/><feOffset/><feGaussianBlur stdDeviation="4.5"/><feComposite in2="hardAlpha" operator="arithmetic" k2="-1" k3="1"/><feColorMatrix values="0 0 0 0 0.0554217 0 0 0 0 0.244578 0 0 0 0 0.154217 0 0 0 0.15 0"/><feBlend in2="shape" result="effect1_innerShadow_435_1390"/><feColorMatrix in="SourceAlpha" values="0 0 0 0 0 0 0 0 0 0 0 0 0 0 0 0 0 0 127 0" result="hardAlpha"/><feOffset/><feGaussianBlur stdDeviation="8"/><feComposite in2="hardAlpha" operator="arithmetic" k2="-1" k3="1"/><feColorMatrix values="0 0 0 0 0.0554217 0 0 0 0 0.244578 0 0 0 0 0.154217 0 0 0 0.1 0"/><feBlend in2="effect1_innerShadow_435_1390" result="effect2_innerShadow_435_1390"/></filter></defs></svg>