<svg width="137" height="86" fill="none" xmlns="http://www.w3.org/2000/svg"><path d="M14.754 71.293C6.605 71.293 0 64.69 0 56.547V14.746C0 6.6 6.605 0 14.754 0h106.637c8.149 0 14.754 6.601 14.754 14.745v56.548H14.755z" fill="#34D186"/><path d="M16.981 16.11h9.831l8.05 22.764 8.663-22.763h6.013l8.504 22.507L66.1 16.11h9.895L61.386 56.12h-6.364l-8.536-22.799-8.793 22.8H31.4L16.98 16.11zM121.794 39.02H89.525c.466 2.845 1.71 5.106 3.735 6.783 2.021 1.68 4.604 2.517 7.746 2.517 3.755 0 6.977-1.31 9.677-3.934l8.461 3.974c-2.108 2.99-4.635 5.204-7.58 6.637-2.946 1.436-6.44 2.15-10.487 2.15-6.281 0-11.394-1.98-15.342-5.938-3.948-3.958-5.922-8.918-5.922-14.876 0-6.104 1.97-11.174 5.906-15.207 3.936-4.033 8.872-6.05 14.81-6.05 6.305 0 11.43 2.017 15.382 6.05 3.948 4.032 5.922 9.36 5.922 15.976l-.039 1.918zm-10.045-7.903c-.663-2.23-1.97-4.045-3.924-5.442-1.954-1.396-4.221-2.095-6.799-2.095-2.8 0-5.259.785-7.371 2.352-1.327.982-2.555 2.71-3.688 5.185h21.782z" fill="#fff"/><path d="M130.938 76.115c1.279 0 2.372.461 3.288 1.389.916.923 1.37 2.043 1.37 3.361 0 1.299-.454 2.407-1.358 3.323-.904.915-1.986 1.373-3.245 1.373-1.295 0-2.401-.466-3.317-1.4-.916-.936-1.37-2.069-1.37-3.402 0-1.283.45-2.376 1.358-3.283.905-.908 1.994-1.361 3.274-1.361z" fill="#34D186"/></svg>